<svg xmlns="http://www.w3.org/2000/svg" fill="none" viewBox="0 11.3880078 74.59692307692308 103.662" style="max-height: 500px" width="74.59692307692308" height="103.662">
<rect fill="white" rx="6" height="111.482" width="76" y="5"/>
<path fill="#1ABCFE" d="M22.62 28.5C22.62 27.1193 23.7393 26 25.12 26C26.5007 26 27.62 27.1193 27.62 28.5C27.62 29.8807 26.5007 31 25.12 31C23.7393 31 22.62 29.8807 22.62 28.5Z" clip-rule="evenodd" fill-rule="evenodd"/>
<path fill="#0ACF83" d="M17.62 33.5C17.62 32.1193 18.7393 31 20.12 31H22.62V33.5C22.62 34.8807 21.5007 36 20.12 36C18.7393 36 17.62 34.8807 17.62 33.5Z" clip-rule="evenodd" fill-rule="evenodd"/>
<path fill="#FF7262" d="M22.62 21V26H25.12C26.5007 26 27.62 24.8807 27.62 23.5C27.62 22.1193 26.5007 21 25.12 21H22.62Z" clip-rule="evenodd" fill-rule="evenodd"/>
<path fill="#F24E1E" d="M17.62 23.5C17.62 24.8807 18.7393 26 20.12 26H22.62V21H20.12C18.7393 21 17.62 22.1193 17.62 23.5Z" clip-rule="evenodd" fill-rule="evenodd"/>
<path fill="#A259FF" d="M17.62 28.5C17.62 29.8807 18.7393 31 20.12 31H22.62V26H20.12C18.7393 26 17.62 27.1193 17.62 28.5Z" clip-rule="evenodd" fill-rule="evenodd"/>
<path fill="#001E36" d="M43.62 26.4617C43.62 24.5919 43.62 23.657 43.9839 22.9429C44.304 22.3147 44.8147 21.804 45.4429 21.4839C46.157 21.12 47.0919 21.12 48.9617 21.12H53.0383C54.9081 21.12 55.843 21.12 56.5571 21.4839C57.1853 21.804 57.696 22.3147 58.0161 22.9429C58.38 23.657 58.38 24.5919 58.38 26.4617V30.5383C58.38 32.4081 58.38 33.343 58.0161 34.0571C57.696 34.6853 57.1853 35.196 56.5571 35.5161C55.843 35.88 54.9081 35.88 53.0383 35.88H48.9617C47.0919 35.88 46.157 35.88 45.4429 35.5161C44.8147 35.196 44.304 34.6853 43.9839 34.0571C43.62 33.343 43.62 32.4081 43.62 30.5383V26.4617Z"/>
<path fill="#31A8FF" d="M46.7829 31.935V25.4444C46.7829 25.4002 46.8013 25.375 46.8444 25.375C47.4799 25.375 48.1152 25.3371 48.7508 25.3371C49.7824 25.3371 50.8993 25.6899 51.2908 26.769C51.3831 27.0339 51.4323 27.3051 51.4323 27.589C51.4323 28.1315 51.3093 28.5793 51.0633 28.9325C50.3761 29.9192 49.185 29.9039 48.1174 29.9039V31.9287C48.1257 31.9886 48.0747 32.017 48.0252 32.017H46.8567C46.8075 32.017 46.7829 31.9917 46.7829 31.935ZM48.1235 26.5924V28.7118C48.5469 28.7427 48.9898 28.7461 49.3966 28.6109C49.8457 28.4813 50.0916 28.0926 50.0916 27.6268C50.104 27.23 49.8878 26.8491 49.5196 26.7059C49.1178 26.5388 48.5573 26.5288 48.1235 26.5924Z"/>
<path fill="#31A8FF" d="M55.2681 28.293C55.082 28.1949 54.8838 28.1232 54.6789 28.0798C54.4157 28.0178 53.3773 27.8009 53.3769 28.3438C53.3861 28.6469 53.8673 28.7954 54.0799 28.882C54.8263 29.1383 55.6708 29.5963 55.6542 30.5171C55.6771 31.6633 54.5665 32.1215 53.6145 32.1216C53.1189 32.1267 52.6027 32.05 52.1491 31.8372C52.1058 31.8143 52.0779 31.7653 52.0798 31.7154V30.6186C52.0749 30.5746 52.1221 30.5362 52.159 30.5678C52.6034 30.8366 53.1301 30.9671 53.6442 30.974C53.8712 30.974 54.3209 30.9521 54.3176 30.6186C54.3176 30.2986 53.7795 30.1515 53.565 30.0702C53.2541 29.9592 52.9593 29.8055 52.6887 29.6132C52.3106 29.3435 52.0734 28.911 52.0798 28.4352C52.0776 27.3559 53.0999 26.8715 54.0205 26.8713C54.4509 26.8677 54.9131 26.8996 55.3137 27.0744C55.3713 27.0913 55.3832 27.152 55.383 27.2064V28.2321C55.3867 28.2958 55.316 28.3175 55.2681 28.293Z"/>
<path fill="#330000" d="M15.24 57.3417C15.24 55.4719 15.24 54.537 15.6039 53.8229C15.924 53.1947 16.4347 52.684 17.0629 52.3639C17.7771 52 18.7119 52 20.5817 52H24.6583C26.5281 52 27.463 52 28.1771 52.3639C28.8053 52.684 29.316 53.1947 29.6361 53.8229C30 54.537 30 55.4719 30 57.3417V61.4183C30 63.2881 30 64.223 29.6361 64.9371C29.316 65.5653 28.8053 66.076 28.1771 66.3961C27.463 66.76 26.5281 66.76 24.6583 66.76H20.5817C18.7119 66.76 17.7771 66.76 17.0629 66.3961C16.4347 66.076 15.924 65.5653 15.6039 64.9371C15.24 64.223 15.24 63.2881 15.24 61.4183V57.3417Z"/>
<path fill="#FF9A00" d="M22.3926 61.2758H20.1054L19.64 62.7585C19.6271 62.8135 19.5764 62.8526 19.5212 62.8498H18.3627C18.2967 62.8498 18.2736 62.8126 18.2934 62.7381L20.2737 56.8886C20.2935 56.8277 20.3133 56.7583 20.3331 56.6804C20.359 56.5449 20.3723 56.4072 20.3728 56.2692C20.3671 56.2284 20.4029 56.1923 20.442 56.198H22.0164C22.0625 56.198 22.0889 56.215 22.0956 56.2488L24.3432 62.7483C24.363 62.816 24.3432 62.8499 24.2838 62.8498H22.9966C22.9515 62.855 22.9084 62.824 22.8976 62.7788L22.3926 61.2758ZM20.4618 59.9962H22.0263C21.7693 59.1178 21.4792 58.2511 21.2441 57.3659C20.9904 58.2526 20.7137 59.1357 20.4618 59.9962Z"/>
<path fill="#FF9A00" d="M25.6798 57.2745C25.5788 57.2787 25.4781 57.2609 25.3842 57.2224C25.2904 57.1839 25.2055 57.1255 25.1352 57.0511C25.0651 56.9734 25.0106 56.8823 24.9749 56.7829C24.9392 56.6836 24.923 56.578 24.9273 56.4722C24.9237 56.3675 24.9417 56.2632 24.98 56.166C25.0185 56.0689 25.0764 55.9812 25.1501 55.9086C25.223 55.8368 25.3092 55.7805 25.4035 55.743C25.4978 55.7055 25.5985 55.6876 25.6996 55.6903C25.9373 55.6903 26.1237 55.763 26.259 55.9086C26.3274 55.9842 26.3804 56.073 26.4153 56.1697C26.4501 56.2664 26.466 56.3692 26.462 56.4722C26.4661 56.5784 26.4494 56.6844 26.4129 56.7838C26.3763 56.8832 26.3206 56.9741 26.2491 57.0511C26.1744 57.1266 26.0852 57.1855 25.9873 57.2239C25.8893 57.2624 25.7846 57.2796 25.6798 57.2745ZM24.9966 62.7482V57.894C24.9966 57.833 25.0229 57.8026 25.0758 57.8026H26.2937C26.3464 57.8026 26.3728 57.833 26.3729 57.894V62.7482C26.3729 62.816 26.3465 62.8499 26.2937 62.8498H25.0857C25.0263 62.8498 24.9966 62.816 24.9966 62.7482Z"/>
<path fill="#00005B" d="M46 57.3417C46 55.4719 46 54.537 46.3639 53.8229C46.684 53.1947 47.1947 52.684 47.8229 52.3639C48.537 52 49.4719 52 51.3417 52H55.4183C57.2881 52 58.223 52 58.9371 52.3639C59.5653 52.684 60.076 53.1947 60.3961 53.8229C60.76 54.537 60.76 55.4719 60.76 57.3417V61.4183C60.76 63.2881 60.76 64.223 60.3961 64.9371C60.076 65.5653 59.5653 66.076 58.9371 66.3961C58.223 66.76 57.2881 66.76 55.4183 66.76H51.3417C49.4719 66.76 48.537 66.76 47.8229 66.3961C47.1947 66.076 46.684 65.5653 46.3639 64.9371C46 64.223 46 63.2881 46 61.4183V57.3417Z"/>
<path fill="#9999FF" d="M49.1629 62.4352V55.7996C49.1629 55.7545 49.1814 55.7287 49.2245 55.7287C49.862 55.7287 50.4991 55.69 51.1367 55.69C52.1713 55.69 53.2916 56.0506 53.6843 57.1538C53.7768 57.4247 53.8261 57.7019 53.8261 57.9921C53.8261 58.5467 53.7028 59.0045 53.456 59.3657C52.7668 60.3744 51.5722 60.3587 50.5014 60.3587V62.4287C50.5098 62.49 50.4585 62.519 50.4089 62.519H49.2369C49.1875 62.519 49.1629 62.4932 49.1629 62.4352ZM50.5075 56.9733V59.1399C50.9322 59.1717 51.3764 59.1751 51.7844 59.0368C52.2348 58.9044 52.4814 58.507 52.4814 58.0308C52.494 57.6251 52.2771 57.2357 51.9078 57.0894C51.5047 56.9185 50.9426 56.9083 50.5075 56.9733Z"/>
<path fill="#9999FF" d="M54.6623 57.3831H55.7448C55.8045 57.3837 55.8581 57.4268 55.8739 57.487C55.9532 57.6711 55.963 57.8932 55.9633 58.092C56.1489 57.866 56.3728 57.6777 56.6237 57.5365C56.8928 57.3774 57.1978 57.2967 57.507 57.3029C57.5583 57.2953 57.6037 57.3427 57.5964 57.3964V58.6526C57.5964 58.7011 57.5631 58.7253 57.497 58.7253C57.0389 58.6922 56.3255 58.8054 55.9926 59.1821V62.4485C55.9926 62.5108 55.9661 62.542 55.9131 62.542H54.7517C54.6946 62.5505 54.6443 62.4968 54.6524 62.4381V58.8914C54.6524 58.4162 54.6622 57.9266 54.5928 57.4558C54.5821 57.4125 54.6217 57.3722 54.6623 57.3831Z"/>
<path fill="black" d="M14.6816 85.8671C15.2325 86.3146 15.4392 86.2806 16.4745 86.2112L26.2328 85.6257C26.4395 85.6257 26.2675 85.4189 26.1988 85.3849L24.5772 84.213C24.2671 83.9723 23.8528 83.6961 23.0598 83.7648L13.6116 84.4545C13.2675 84.4885 13.1981 84.6613 13.3355 84.7986L14.6816 85.8671ZM15.2672 88.1415L15.2672 98.4085C15.2672 98.9601 15.5426 99.1669 16.1636 99.1322L26.8878 98.5119C27.5088 98.4779 27.5782 98.0984 27.5782 97.6501V87.4518C27.5782 87.0043 27.4061 86.7628 27.0258 86.7968L15.8188 87.4518C15.4053 87.4865 15.2672 87.694 15.2672 88.1415ZM25.854 88.6916C25.9226 89.0017 25.854 89.3119 25.5438 89.3473L25.0269 89.4507V97.0299C24.578 97.2713 24.1644 97.4094 23.8196 97.4094C23.2673 97.4094 23.1292 97.2366 22.7157 96.7205L19.3359 91.4142V96.5477L20.4051 96.7899C20.4051 96.7899 20.4051 97.4102 19.5427 97.4102L17.1634 97.5475C17.0948 97.4102 17.1634 97.0653 17.4049 96.9966L18.0252 96.8246L18.0252 90.0363L17.1649 89.9668C17.0955 89.6567 17.2683 89.2092 17.7505 89.1745L20.3025 89.0025L23.8203 94.3775V89.622L22.9232 89.5194C22.8545 89.1398 23.1299 88.8644 23.4748 88.8304L25.854 88.6916ZM12.8186 83.5241L22.647 82.8004C23.8536 82.6971 24.1644 82.7657 24.9228 83.3173L28.0604 85.5223C28.5773 85.9011 28.7501 86.0045 28.7501 86.418L28.7501 98.5119C28.7501 99.2695 28.4746 99.7185 27.5095 99.7864L16.0949 100.476C15.3713 100.511 15.0257 100.407 14.6462 99.9245L12.3356 96.9265C11.9221 96.3749 11.7501 95.9621 11.7501 95.4792L11.7501 84.7292C11.7501 84.1097 12.0262 83.592 12.8186 83.5241Z"/>
<path fill="#FBBC05" d="M44.7501 98.3219C44.7501 99.0271 45.3262 99.5983 46.036 99.5983H46.0545C45.3338 99.5983 44.7501 99.0271 44.7501 98.3219Z"/>
<path fill="#FBBC05" d="M55.8006 88.43V91.7624L60.2933 88.1386V84.92C60.2933 84.2148 59.7172 83.6437 59.0074 83.6437H49.2741L49.2654 88.43H55.8006Z"/>
<path fill="#34A853" d="M55.8009 95.0962H49.2548L49.2472 99.5986H59.0077C59.7186 99.5986 60.2936 99.0274 60.2936 98.3222V95.4163L55.8009 91.7638V95.0962Z"/>
<path fill="#EA4335" d="M49.2743 83.6437L44.7501 88.43H49.2667L49.2743 83.6437Z"/>
<path fill="#1967D2" d="M44.7501 95.0959V98.3219C44.7501 99.0271 45.3338 99.5982 46.0545 99.5982H49.2471L49.2547 95.0959H44.7501Z"/>
<path fill="#4285F4" d="M49.2667 88.43H44.7501V95.0958H49.2547L49.2667 88.43Z"/>
<path fill="#34A853" d="M64.2436 97.1873V86.2318C63.9903 84.7778 62.3956 86.4445 62.3956 86.4445L60.2944 88.1389V95.4153L63.3022 97.8606C64.3881 98.0031 64.2436 97.1873 64.2436 97.1873Z"/>
<path fill="#188038" d="M55.8007 91.7624L60.2944 95.416V88.1397L55.8007 91.7624Z"/>
<rect fill="black" rx="5.5" height="11" width="30" x="23"/>
<path fill="white" d="M29.6352 5.61C29.6352 5.33333 29.6919 5.08833 29.8052 4.875C29.9219 4.66167 30.0785 4.49667 30.2752 4.38C30.4752 4.26 30.6969 4.2 30.9402 4.2C31.1202 4.2 31.2969 4.24 31.4702 4.32C31.6469 4.39667 31.7869 4.5 31.8902 4.63V3.3L32.4652 3.3V7H31.8902V6.585C31.7969 6.71833 31.6669 6.82833 31.5002 6.915C31.3369 7.00167 31.1485 7.045 30.9352 7.045C30.6952 7.045 30.4752 6.985 30.2752 6.865C30.0785 6.74167 29.9219 6.57167 29.8052 6.355C29.6919 6.135 29.6352 5.88667 29.6352 5.61ZM31.8902 5.62C31.8902 5.43 31.8502 5.265 31.7702 5.125C31.6935 4.985 31.5919 4.87833 31.4652 4.805C31.3385 4.73167 31.2019 4.695 31.0552 4.695C30.9085 4.695 30.7719 4.73167 30.6452 4.805C30.5185 4.875 30.4152 4.98 30.3352 5.12C30.2585 5.25667 30.2202 5.42 30.2202 5.61C30.2202 5.8 30.2585 5.96667 30.3352 6.11C30.4152 6.25333 30.5185 6.36333 30.6452 6.44C30.7752 6.51333 30.9119 6.55 31.0552 6.55C31.2019 6.55 31.3385 6.51333 31.4652 6.44C31.5919 6.36667 31.6935 6.26 31.7702 6.12C31.8502 5.97667 31.8902 5.81 31.8902 5.62ZM35.7389 5.555C35.7389 5.65833 35.7322 5.75167 35.7189 5.835H33.6139C33.6305 6.055 33.7122 6.23167 33.8589 6.365C34.0055 6.49833 34.1855 6.565 34.3989 6.565C34.7055 6.565 34.9222 6.43667 35.0489 6.18H35.6639C35.5805 6.43333 35.4289 6.64167 35.2089 6.805C34.9922 6.965 34.7222 7.045 34.3989 7.045C34.1355 7.045 33.8989 6.98667 33.6889 6.87C33.4822 6.75 33.3189 6.58333 33.1989 6.37C33.0822 6.15333 33.0239 5.90333 33.0239 5.62C33.0239 5.33667 33.0805 5.08833 33.1939 4.875C33.3105 4.65833 33.4722 4.49167 33.6789 4.375C33.8889 4.25833 34.1289 4.2 34.3989 4.2C34.6589 4.2 34.8905 4.25667 35.0939 4.37C35.2972 4.48333 35.4555 4.64333 35.5689 4.85C35.6822 5.05333 35.7389 5.28833 35.7389 5.555ZM35.1439 5.375C35.1405 5.165 35.0655 4.99667 34.9189 4.87C34.7722 4.74333 34.5905 4.68 34.3739 4.68C34.1772 4.68 34.0089 4.74333 33.8689 4.87C33.7289 4.99333 33.6455 5.16167 33.6189 5.375H35.1439ZM37.2998 7.045C37.0831 7.045 36.8881 7.00667 36.7148 6.93C36.5448 6.85 36.4098 6.74333 36.3098 6.61C36.2098 6.47333 36.1565 6.32167 36.1498 6.155H36.7398C36.7498 6.27167 36.8048 6.37 36.9048 6.45C37.0081 6.52667 37.1365 6.565 37.2898 6.565C37.4498 6.565 37.5731 6.535 37.6598 6.475C37.7498 6.41167 37.7948 6.33167 37.7948 6.235C37.7948 6.13167 37.7448 6.055 37.6448 6.005C37.5481 5.955 37.3931 5.9 37.1798 5.84C36.9731 5.78333 36.8048 5.72833 36.6748 5.675C36.5448 5.62167 36.4315 5.54 36.3348 5.43C36.2415 5.32 36.1948 5.175 36.1948 4.995C36.1948 4.84833 36.2381 4.715 36.3248 4.595C36.4115 4.47167 36.5348 4.375 36.6948 4.305C36.8581 4.235 37.0448 4.2 37.2548 4.2C37.5681 4.2 37.8198 4.28 38.0098 4.44C38.2031 4.59667 38.3065 4.81167 38.3198 5.085H37.7498C37.7398 4.96167 37.6898 4.86333 37.5998 4.79C37.5098 4.71667 37.3881 4.68 37.2348 4.68C37.0848 4.68 36.9698 4.70833 36.8898 4.765C36.8098 4.82167 36.7698 4.89667 36.7698 4.99C36.7698 5.06333 36.7965 5.125 36.8498 5.175C36.9031 5.225 36.9681 5.265 37.0448 5.295C37.1215 5.32167 37.2348 5.35667 37.3848 5.4C37.5848 5.45333 37.7481 5.50833 37.8748 5.565C38.0048 5.61833 38.1165 5.69833 38.2098 5.805C38.3031 5.91167 38.3515 6.05333 38.3548 6.23C38.3548 6.38667 38.3115 6.52667 38.2248 6.65C38.1381 6.77333 38.0148 6.87 37.8548 6.94C37.6981 7.01 37.5131 7.045 37.2998 7.045ZM39.2607 3.88C39.1574 3.88 39.0707 3.845 39.0007 3.775C38.9307 3.705 38.8957 3.61833 38.8957 3.515C38.8957 3.41167 38.9307 3.325 39.0007 3.255C39.0707 3.185 39.1574 3.15 39.2607 3.15C39.3607 3.15 39.4457 3.185 39.5157 3.255C39.5857 3.325 39.6207 3.41167 39.6207 3.515C39.6207 3.61833 39.5857 3.705 39.5157 3.775C39.4457 3.845 39.3607 3.88 39.2607 3.88ZM39.5407 4.245V7H38.9707V4.245H39.5407ZM41.3991 4.2C41.6124 4.2 41.8007 4.24333 41.9641 4.33C42.1307 4.41333 42.2607 4.51833 42.3541 4.645V4.245H42.9291V7.045C42.9291 7.29833 42.8757 7.52333 42.7691 7.72C42.6624 7.92 42.5074 8.07667 42.3041 8.19C42.1041 8.30333 41.8641 8.36 41.5841 8.36C41.2107 8.36 40.9007 8.27167 40.6541 8.095C40.4074 7.92167 40.2674 7.685 40.2341 7.385H40.7991C40.8424 7.52833 40.9341 7.64333 41.0741 7.73C41.2174 7.82 41.3874 7.865 41.5841 7.865C41.8141 7.865 41.9991 7.795 42.1391 7.655C42.2824 7.515 42.3541 7.31167 42.3541 7.045V6.585C42.2574 6.715 42.1257 6.825 41.9591 6.915C41.7957 7.00167 41.6091 7.045 41.3991 7.045C41.1591 7.045 40.9391 6.985 40.7391 6.865C40.5424 6.74167 40.3857 6.57167 40.2691 6.355C40.1557 6.135 40.0991 5.88667 40.0991 5.61C40.0991 5.33333 40.1557 5.08833 40.2691 4.875C40.3857 4.66167 40.5424 4.49667 40.7391 4.38C40.9391 4.26 41.1591 4.2 41.3991 4.2ZM42.3541 5.62C42.3541 5.43 42.3141 5.265 42.2341 5.125C42.1574 4.985 42.0557 4.87833 41.9291 4.805C41.8024 4.73167 41.6657 4.695 41.5191 4.695C41.3724 4.695 41.2357 4.73167 41.1091 4.805C40.9824 4.875 40.8791 4.98 40.7991 5.12C40.7224 5.25667 40.6841 5.42 40.6841 5.61C40.6841 5.8 40.7224 5.96667 40.7991 6.11C40.8791 6.25333 40.9824 6.36333 41.1091 6.44C41.2391 6.51333 41.3757 6.55 41.5191 6.55C41.6657 6.55 41.8024 6.51333 41.9291 6.44C42.0557 6.36667 42.1574 6.26 42.2341 6.12C42.3141 5.97667 42.3541 5.81 42.3541 5.62ZM45.0677 4.2C45.2844 4.2 45.4777 4.245 45.6477 4.335C45.8211 4.425 45.9561 4.55833 46.0527 4.735C46.1494 4.91167 46.1977 5.125 46.1977 5.375V7H45.6327V5.46C45.6327 5.21333 45.5711 5.025 45.4477 4.895C45.3244 4.76167 45.1561 4.695 44.9427 4.695C44.7294 4.695 44.5594 4.76167 44.4327 4.895C44.3094 5.025 44.2477 5.21333 44.2477 5.46V7H43.6777V4.245L44.2477 4.245V4.56C44.3411 4.44667 44.4594 4.35833 44.6027 4.295C44.7494 4.23167 44.9044 4.2 45.0677 4.2Z"/>
</svg>